<svg width="100" height="11" viewBox="0 0 100 11" fill="none" xmlns="http://www.w3.org/2000/svg">
<path d="M19.8227 8.42506V7.14914C19.8227 7.14914 21.4216 7.16229 21.6968 7.14914C21.9655 7.1294 22.1162 6.90578 21.9196 6.6427C21.723 6.38621 20.419 4.62359 20.111 4.21582C19.7113 3.6765 19.6588 2.07831 21.2709 2.07831H25.2616V3.35423H23.276C23.276 3.35423 22.9877 3.53181 23.1319 3.76201C23.276 3.98563 24.875 6.12314 25.065 6.39936C25.2616 6.67559 25.2616 7.18202 25.2616 7.29382C25.2616 7.40564 25.006 8.44477 24.069 8.42506C23.1319 8.41191 19.8227 8.42506 19.8227 8.42506ZM27.3913 2.07831H32.8827V3.35423H30.0715V4.70251H32.8827V5.94554H30.0715V7.11625H32.8827V8.42506H27.3913V2.07831ZM35.2549 8.42506V2.07831H38.125L40.7724 6.06394V2.07831H41.9978V8.42506H39.1276L36.4802 4.40656V8.42506H35.2549ZM44.2258 8.42506V2.07831H47.1026L49.75 6.06394V2.07831H50.9754V8.42506H48.0986L45.4512 4.40656V8.42506H44.2258ZM63.7405 2.07831H69.2319V3.35423H66.4207V4.70251H69.2319V5.94554H66.4207V7.11625H69.2319V8.42506H63.7405V2.07831ZM84.1005 2.07831H89.5853V3.35423H86.7807V4.70251H89.5853V5.94554H86.7807V7.11625H89.5853V8.42506H84.1005V2.07831M76.5581 8.42506V7.14914C76.5581 7.14914 78.157 7.16229 78.4322 7.14914C78.7075 7.1294 78.8516 6.90578 78.655 6.6427C78.465 6.38621 77.161 4.62359 76.853 4.21582C76.4467 3.6765 76.4008 2.07831 78.0128 2.07831H81.997V3.35423H80.0115C80.0115 3.35423 79.7231 3.53181 79.8673 3.76201C80.0115 3.98563 81.6104 6.12314 81.807 6.39936C81.997 6.67559 81.997 7.18202 81.997 7.29382C81.997 7.40564 81.7415 8.44477 80.8044 8.42506C79.8673 8.41191 76.5581 8.42506 76.5581 8.42506ZM53.4917 2.07831H56.126V4.58413H58.4195V2.07831H61.0669V8.42506H58.4195V5.94553H56.126V8.42505H53.4917V2.07831M71.591 2.07831H74.3956V8.42506H71.591V2.07831Z" fill="white"/>
<path d="M94.6573 3.35425H96.4135C96.4135 3.35425 96.9443 3.45291 96.9443 4.03825C96.9443 4.58413 96.4135 4.70252 96.4135 4.70252H94.6573V3.35425ZM91.9772 8.42507H94.6573V5.94554H95.8172L97.1868 8.42506H99.6441L98.2418 5.76796C98.2418 5.76796 99.5327 5.3339 99.5327 3.91985C99.5327 2.09146 97.5603 2.07831 97.5603 2.07831H91.9772V8.42506" fill="white"/>
<path fill-rule="evenodd" clip-rule="evenodd" d="M13.8857 9.38528H7.62107C7.5621 9.49052 7.29342 9.97063 6.86748 10.3521H14.7834V2.53213H13.8857V9.38528ZM0.910854 0.98653H6.83471C7.07062 0.624799 7.2148 0.401201 7.2148 0.401201C7.31309 0.263068 7.45071 0.13811 7.61453 0.0197238H0.013106V7.8134H0.910843V0.98653M7.64073 0.697156L3.41409 7.22148C3.19783 7.55689 2.41147 8.32641 1.92 8.32641H0V10.339H5.76658C6.42189 10.3192 7.09028 9.48394 7.26067 9.15509C7.26067 9.15509 11.1072 3.03854 11.3431 2.68996C11.6773 2.19669 12.5423 2.01254 13.0076 2.01254L14.7834 1.99281V0.0197238C13.6367 0.0197238 9.08895 0 9.08895 0C8.59746 0 7.90285 0.335414 7.64073 0.697156Z" fill="white"/>
</svg>
